<svg aria-labelledBy="logo-title" xmlns="http://www.w3.org/2000/svg" width="3.1667in" height="0.5833in" viewBox="0 0 228 42" role="image"><defs><style>.a{fill:#053040;}</style></defs>
<title id="logo-title">Logo for Labour Relations Board of British Columbia</title>
<path class="a" d="M95.1924,9.8379h2.626a5.1453,5.1453,0,0,1,1.4218.1626,2.3117,2.3117,0,0,1,.877.4473,1.4715,1.4715,0,0,1,.4473.6562,2.5,2.5,0,0,1,.123.79,1.8459,1.8459,0,0,1-1.2666,1.8472,2.7953,2.7953,0,0,1,.7373.3657,1.9477,1.9477,0,0,1,.4766.4825,1.79,1.79,0,0,1,.2558.5747,2.63,2.63,0,0,1,.0752.6215,2.73,2.73,0,0,1-.1513.918,1.8208,1.8208,0,0,1-.4991.749,2.4075,2.4075,0,0,1-.9062.5,4.5044,4.5044,0,0,1-1.37.18H95.1924Zm2.7295,3.6362a2.549,2.549,0,0,0,1.5742-.3891,1.3829,1.3829,0,0,0,.4941-1.1558,1.286,1.286,0,0,0-.4941-1.1211,3.0317,3.0317,0,0,0-1.7012-.3545H95.8887v3.0205Zm.0937,4.0308a4.2042,4.2042,0,0,0,1.086-.1162,1.7134,1.7134,0,0,0,.6738-.3311,1.1334,1.1334,0,0,0,.3476-.5224,2.236,2.236,0,0,0,.1-.6914,1.6117,1.6117,0,0,0-.5118-1.29,2.5262,2.5262,0,0,0-1.6611-.4414H95.8887v3.3921Z"/>
<path class="a" d="M102.5332,12.15h.6738v.9756a2.7522,2.7522,0,0,1,.8252-.79,1.893,1.893,0,0,1,.9873-.2788c.086,0,.1641.002.2383.0059a1.8854,1.8854,0,0,1,.2383.0293l-.0811.6387a2.3771,2.3771,0,0,0-.3838-.0347,1.84,1.84,0,0,0-.6152.11,1.6594,1.6594,0,0,0-.5928.3774,1.9175,1.9175,0,0,0-.4414.5635,1.6608,1.6608,0,0,0-.1748.7841v3.6011h-.6738Z"/>
<path class="a" d="M106.67,9.8379h.7656v1.0107H106.67Zm.0459,2.312h.6738v5.9824h-.6738Z"/>
<path class="a" d="M109.62,12.7075h-.9287V12.15h.9287V10.5h.6738v1.65H111.99v.5576h-1.6963v3.9146a1.4146,1.4146,0,0,0,.1866.75.6954.6954,0,0,0,.65.3076,2.3757,2.3757,0,0,0,.5107-.0464,3.1516,3.1516,0,0,0,.3721-.1045l.1386.5459a2.6964,2.6964,0,0,1-1.08.1861,1.554,1.554,0,0,1-.8008-.1744,1.1216,1.1216,0,0,1-.4365-.4589,1.7847,1.7847,0,0,1-.18-.6563q-.0353-.372-.0352-.7783Z"/>
<path class="a" d="M113.3379,9.8379h.7656v1.0107h-.7656Zm.0459,2.312h.6738v5.9824h-.6738Z"/>
<path class="a" d="M116.3105,16.4712a1.3892,1.3892,0,0,0,.5928.9873,2.5044,2.5044,0,0,0,1.3242.29,1.8339,1.8339,0,0,0,1.2315-.3252,1.05,1.05,0,0,0,.36-.8134,1.5883,1.5883,0,0,0-.0459-.3892.8086.8086,0,0,0-.1806-.3311,1.036,1.036,0,0,0-.3838-.2553,3.0634,3.0634,0,0,0-.6445-.1744l-.7315-.1162a6.9143,6.9143,0,0,1-.8545-.1972,2.1284,2.1284,0,0,1-.6387-.3081,1.2312,1.2312,0,0,1-.3945-.4761,1.64,1.64,0,0,1-.1338-.7031,1.4576,1.4576,0,0,1,.1748-.7144,1.5675,1.5675,0,0,1,.4756-.5342,2.304,2.304,0,0,1,.7139-.331,3.264,3.264,0,0,1,.8887-.1162,3.6836,3.6836,0,0,1,1.0293.122,1.9569,1.9569,0,0,1,.6738.3311,1.5339,1.5339,0,0,1,.4062.4878,2.8342,2.8342,0,0,1,.2266.5923l-.6162.1279a2.4972,2.4972,0,0,0-.2149-.47,1.1167,1.1167,0,0,0-.3076-.3369,1.3455,1.3455,0,0,0-.4648-.2036,3.5062,3.5062,0,0,0-1.4746.0175,1.4254,1.4254,0,0,0-.5059.2383.8663.8663,0,0,0-.2734.3482,1.07,1.07,0,0,0-.0811.4067,1.4441,1.4441,0,0,0,.0459.3774.6264.6264,0,0,0,.1865.2964,1.1743,1.1743,0,0,0,.39.2207,3.7251,3.7251,0,0,0,.6562.1626l.918.1509a2.8873,2.8873,0,0,1,1.4043.5635,1.5293,1.5293,0,0,1,.4648,1.2256,1.5577,1.5577,0,0,1-.1445.6621,1.4945,1.4945,0,0,1-.43.5405,2.1617,2.1617,0,0,1-.7148.36,3.3379,3.3379,0,0,1-.9873.1338,4.5448,4.5448,0,0,1-1.0049-.1045,2.4138,2.4138,0,0,1-.7959-.3257,1.7467,1.7467,0,0,1-.5459-.5689,2.0023,2.0023,0,0,1-.2559-.8481Z"/>
<path class="a" d="M122.1543,9.8379h.6738v3.2876a3.1214,3.1214,0,0,1,1.0391-.8887,2.6327,2.6327,0,0,1,1.18-.2729,1.8811,1.8811,0,0,1,1.51.5693,2.4086,2.4086,0,0,1,.4883,1.6147v3.9844h-.6738V14.3335a2.1534,2.1534,0,0,0-.3369-1.353,1.3032,1.3032,0,0,0-1.0694-.4126,2.26,2.26,0,0,0-.7373.1338,1.9669,1.9669,0,0,0-.7021.4238,2.2985,2.2985,0,0,0-.5234.6216,1.8428,1.8428,0,0,0-.1739.8769v3.5083h-.6738Z"/>
<path class="a" d="M138.4756,15.4722a3.9827,3.9827,0,0,1-.3194,1.1382,2.8439,2.8439,0,0,1-.6445.9062,2.9476,2.9476,0,0,1-.9883.604,4.1421,4.1421,0,0,1-2.8281-.0581,3.09,3.09,0,0,1-1.15-.8306,3.9227,3.9227,0,0,1-.749-1.3589,5.919,5.919,0,0,1-.2666-1.8647,5.62,5.62,0,0,1,.29-1.8877,4.0612,4.0612,0,0,1,.7842-1.3706,3.2876,3.2876,0,0,1,1.15-.8364,3.4758,3.4758,0,0,1,1.3994-.2847,3.85,3.85,0,0,1,1.3018.1973,2.6475,2.6475,0,0,1,.9228.5517,2.807,2.807,0,0,1,.61.8423,5.5184,5.5184,0,0,1,.3711,1.0571l-.6739.1514a4.96,4.96,0,0,0-.3193-.918,2.2467,2.2467,0,0,0-.4873-.6855,2.0349,2.0349,0,0,0-.7148-.43,2.9906,2.9906,0,0,0-1.0108-.1509,2.5939,2.5939,0,0,0-1.22.2788,2.6417,2.6417,0,0,0-.9063.7784,3.64,3.64,0,0,0-.5683,1.185,5.355,5.355,0,0,0-.1983,1.4986,5.489,5.489,0,0,0,.1924,1.5043,3.6277,3.6277,0,0,0,.5567,1.1788,2.5088,2.5088,0,0,0,.9121.7724,2.7688,2.7688,0,0,0,1.2549.2735,3.3041,3.3041,0,0,0,1.1318-.1685,2,2,0,0,0,.7559-.4707,2.2112,2.2112,0,0,0,.4648-.7144,4.3144,4.3144,0,0,0,.25-.8886Z"/>
<path class="a" d="M142.7617,18.3184a2.9807,2.9807,0,0,1-1.1787-.2207,2.348,2.348,0,0,1-.8721-.6333,2.88,2.88,0,0,1-.5449-.9932,4.1348,4.1348,0,0,1-.1914-1.3013,4.0318,4.0318,0,0,1,.2031-1.3242,2.97,2.97,0,0,1,.5684-1.0107,2.4751,2.4751,0,0,1,.8887-.6446,2.9325,2.9325,0,0,1,1.1738-.2265,2.9986,2.9986,0,0,1,1.1738.2207,2.3919,2.3919,0,0,1,.8828.6333,2.84,2.84,0,0,1,.5508.9931,4.0659,4.0659,0,0,1,.1914,1.29,4.1684,4.1684,0,0,1-.1972,1.3242,2.9524,2.9524,0,0,1-.5625,1.0161,2.435,2.435,0,0,1-.8946.6509A3.0044,3.0044,0,0,1,142.7617,18.3184Zm.0235-.5811a2.0975,2.0975,0,0,0,.9648-.2031,1.8475,1.8475,0,0,0,.65-.5518,2.3029,2.3029,0,0,0,.3711-.8247,4.3293,4.3293,0,0,0,.1162-1.0342,4.1515,4.1515,0,0,0-.1162-1.0048A2.3052,2.3052,0,0,0,144.4,13.3a1.8475,1.8475,0,0,0-.65-.5518,2.374,2.374,0,0,0-1.9238,0,1.7817,1.7817,0,0,0-.65.5518,2.3673,2.3673,0,0,0-.3653.8189,4.2034,4.2034,0,0,0-.1162,1.0166,4.2734,4.2734,0,0,0,.1162,1.0224,2.3645,2.3645,0,0,0,.3653.8247,1.7817,1.7817,0,0,0,.65.5518A2.1063,2.1063,0,0,0,142.7852,17.7373Z"/>
<path class="a" d="M147.3164,9.8379h.6738v8.2944h-.6738Z"/>
<path class="a" d="M149.8594,12.15h.6738v3.7983a2.3754,2.3754,0,0,0,.2969,1.3536,1.1648,1.1648,0,0,0,1.0156.4126,1.9883,1.9883,0,0,0,.7207-.14,2.3666,2.3666,0,0,0,.6856-.418,2.4091,2.4091,0,0,0,.5117-.6215,1.8575,1.8575,0,0,0,.1738-.8775V12.15h.6738v5.9824h-.6738v-.9756a2.7492,2.7492,0,0,1-2.1719,1.1617,1.7616,1.7616,0,0,1-1.4648-.5577,2.5785,2.5785,0,0,1-.4414-1.6264Z"/>
<path class="a" d="M156.47,12.15h.6739v.9873a3.1917,3.1917,0,0,1,.9462-.8828,2.0429,2.0429,0,0,1,1.0293-.29,1.6386,1.6386,0,0,1,1.7071,1.1733,3.0061,3.0061,0,0,1,.9531-.8657,2.3459,2.3459,0,0,1,1.1728-.3076,1.8734,1.8734,0,0,1,1.3477.4648,1.9744,1.9744,0,0,1,.4873,1.4868v4.2168h-.6738V14.1592a3.2691,3.2691,0,0,0-.0752-.7666,1.1892,1.1892,0,0,0-.2324-.4878.8307.8307,0,0,0-.39-.2612,1.7627,1.7627,0,0,0-.5449-.0757,2.25,2.25,0,0,0-.61.0986,1.7677,1.7677,0,0,0-.6562.3662,1.8387,1.8387,0,0,0-.459.5342,1.4434,1.4434,0,0,0-.18.7319v3.8335h-.6738V14.1709a1.9658,1.9658,0,0,0-.3018-1.2373,1.1237,1.1237,0,0,0-.9179-.3657,1.52,1.52,0,0,0-.6563.145,2.6379,2.6379,0,0,0-.61.4126c-.0694.062-.1455.1357-.2266.2207a1.36,1.36,0,0,0-.2148.3022,2.0235,2.0235,0,0,0-.1573.4063,2.0509,2.0509,0,0,0-.0634.5347v3.5429H156.47Z"/>
<path class="a" d="M166.6113,9.8379h.6739v3.206a3.2221,3.2221,0,0,1,.8945-.7954,2.3083,2.3083,0,0,1,1.1846-.2846,2.563,2.563,0,0,1,1.1377.2382,2.2344,2.2344,0,0,1,.8085.6563,2.8568,2.8568,0,0,1,.4756.9873,4.6236,4.6236,0,0,1,.1573,1.2314,4.4939,4.4939,0,0,1-.1914,1.3648,3.0149,3.0149,0,0,1-.5411,1.0166,2.3091,2.3091,0,0,1-.8418.6392,2.6971,2.6971,0,0,1-1.1093.2207,2.5969,2.5969,0,0,1-1.0508-.2207,2.3455,2.3455,0,0,1-.9238-.7784v.813h-.6739Zm.65,5.5415a5.1061,5.1061,0,0,0,.041.6909,2.0592,2.0592,0,0,0,.1387.5288,1.6477,1.6477,0,0,0,.25.4121,2.5139,2.5139,0,0,0,.918.6333,2.0128,2.0128,0,0,0,.6386.0928,2.0942,2.0942,0,0,0,.79-.145,1.573,1.573,0,0,0,.6221-.459,2.3087,2.3087,0,0,0,.4121-.8188,4.3664,4.3664,0,0,0,.15-1.2256,3.8087,3.8087,0,0,0-.168-1.22,2.2745,2.2745,0,0,0-.4356-.7841,1.501,1.501,0,0,0-.6045-.4185,1.9422,1.9422,0,0,0-.6621-.1221,2.4092,2.4092,0,0,0-.65.0816,1.732,1.732,0,0,0-.581.3022,2.071,2.071,0,0,0-.6328.7608,2.6307,2.6307,0,0,0-.2266,1.1674Z"/>
<path class="a" d="M173.6045,9.8379h.7666v1.0107h-.7666Zm.0459,2.312h.6738v5.9824H173.65Z"/>
<path class="a" d="M180.0283,17.2842a2.883,2.883,0,0,1-.36.3662,2.4434,2.4434,0,0,1-.4766.3193,2.7,2.7,0,0,1-.5859.2207,2.8488,2.8488,0,0,1-.7032.0811,2.3545,2.3545,0,0,1-1.51-.4527,1.6185,1.6185,0,0,1-.57-1.3476,1.75,1.75,0,0,1,.2558-.9873,1.8087,1.8087,0,0,1,.68-.6045,3.1778,3.1778,0,0,1,.9649-.3076,9.4108,9.4108,0,0,1,1.1211-.11l1.1611-.0464v-.186a1.9841,1.9841,0,0,0-.3428-1.2895,1.5385,1.5385,0,0,0-1.2256-.4063,3.2337,3.2337,0,0,0-.7256.0693,1.5,1.5,0,0,0-.4941.2037,1.1,1.1,0,0,0-.3135.3134,1.4069,1.4069,0,0,0-.1748.4009l-.6152-.0928q.3252-1.464,2.3467-1.4638a3.2222,3.2222,0,0,1,1.0576.1508,1.6818,1.6818,0,0,1,.6914.4356,1.7028,1.7028,0,0,1,.3769.6973,3.5088,3.5088,0,0,1,.1162.9467v3.938h-.6738Zm-.0117-2.335-1.1035.0464a6.4964,6.4964,0,0,0-1.127.1221,2.22,2.22,0,0,0-.7314.2788,1.0534,1.0534,0,0,0-.4.4414,1.45,1.45,0,0,0-.1231.6216,1.2371,1.2371,0,0,0,.3086.8769,1.425,1.425,0,0,0,1.0743.3311,3.3644,3.3644,0,0,0,.7607-.0869,1.5212,1.5212,0,0,0,.6221-.2847,2.5187,2.5187,0,0,0,.3418-.29,1.28,1.28,0,0,0,.2207-.3076,1.2648,1.2648,0,0,0,.123-.3775,3.0987,3.0987,0,0,0,.0342-.4883Z"/>
<path class="a" d="M95.1924,24.3594H95.9v7.6318h4.5078l-.15.6621H95.1924Z"/>
<path class="a" d="M105.4844,31.8057a2.8664,2.8664,0,0,1-.3594.3662,2.5035,2.5035,0,0,1-.4766.3193,2.715,2.715,0,0,1-.5869.2207,2.87,2.87,0,0,1-.7021.0811,2.3577,2.3577,0,0,1-1.5108-.4532,1.6169,1.6169,0,0,1-.5693-1.3476,1.7511,1.7511,0,0,1,.2559-.9873,1.7935,1.7935,0,0,1,.68-.6045,3.192,3.192,0,0,1,.9639-.3076,9.5178,9.5178,0,0,1,1.1211-.11l1.1611-.0459V28.75a1.9836,1.9836,0,0,0-.3418-1.2891,1.538,1.538,0,0,0-1.2265-.4062,3.1944,3.1944,0,0,0-.7246.0693,1.4841,1.4841,0,0,0-.4942.2031,1.1054,1.1054,0,0,0-.3144.3135,1.3993,1.3993,0,0,0-.1739.4014l-.6152-.0928q.3252-1.4648,2.3457-1.4638a3.2186,3.2186,0,0,1,1.0576.15,1.6862,1.6862,0,0,1,.6914.4356,1.71,1.71,0,0,1,.378.6973,3.5613,3.5613,0,0,1,.1152.9472v3.9375h-.6738Zm-.0117-2.335-1.1036.0459a6.5055,6.5055,0,0,0-1.1269.1221,2.25,2.25,0,0,0-.7315.2793,1.0568,1.0568,0,0,0-.4.4414,1.461,1.461,0,0,0-.1221.6211,1.2361,1.2361,0,0,0,.3076.8769,1.4275,1.4275,0,0,0,1.0752.3311,3.3341,3.3341,0,0,0,.76-.0869,1.51,1.51,0,0,0,.622-.2842,2.4858,2.4858,0,0,0,.3428-.291,1.3343,1.3343,0,0,0,.2207-.3076,1.2684,1.2684,0,0,0,.1221-.377,3.1162,3.1162,0,0,0,.0342-.4883Z"/>
<path class="a" d="M108.0059,24.3594h.6738v3.206a3.2242,3.2242,0,0,1,.8945-.7959,2.3132,2.3132,0,0,1,1.1846-.2841,2.5558,2.5558,0,0,1,1.1377.2382,2.2245,2.2245,0,0,1,.8086.6563,2.8481,2.8481,0,0,1,.4756.9873,4.621,4.621,0,0,1,.1572,1.2314,4.4928,4.4928,0,0,1-.1914,1.3643,3.0052,3.0052,0,0,1-.541,1.0166,2.31,2.31,0,0,1-.8418.64,2.7041,2.7041,0,0,1-1.1094.2207,2.6039,2.6039,0,0,1-1.0508-.2207,2.3528,2.3528,0,0,1-.9238-.7783v.8125h-.6738Zm.65,5.541a5.0911,5.0911,0,0,0,.0411.6914,2.0566,2.0566,0,0,0,.1386.5283,1.6417,1.6417,0,0,0,.25.4121,2.5223,2.5223,0,0,0,.918.6338,2.0277,2.0277,0,0,0,.6387.0928,2.0942,2.0942,0,0,0,.79-.1455,1.5723,1.5723,0,0,0,.6221-.459,2.3058,2.3058,0,0,0,.4121-.8184,4.3676,4.3676,0,0,0,.15-1.2255,3.8087,3.8087,0,0,0-.168-1.22,2.2775,2.2775,0,0,0-.4355-.7842,1.5037,1.5037,0,0,0-.6045-.4189,1.9422,1.9422,0,0,0-.6621-.1221,2.3878,2.3878,0,0,0-.65.0821,1.7207,1.7207,0,0,0-.5811.3017,2.071,2.071,0,0,0-.6328.7608,2.633,2.633,0,0,0-.2266,1.1679Z"/>
<path class="a" d="M117.6133,32.84a2.9893,2.9893,0,0,1-1.18-.2207,2.3446,2.3446,0,0,1-.8711-.6337,2.9072,2.9072,0,0,1-.5469-.9932,4.1583,4.1583,0,0,1-.1914-1.3008,4.0808,4.0808,0,0,1,.2031-1.3242,2.9806,2.9806,0,0,1,.57-1.0108,2.4382,2.4382,0,0,1,.8886-.6445,2.9079,2.9079,0,0,1,1.1729-.2265,2.9776,2.9776,0,0,1,1.1728.2207,2.3825,2.3825,0,0,1,.8828.6328,2.8691,2.8691,0,0,1,.5528.9931,4.1288,4.1288,0,0,1,.1914,1.29,4.1984,4.1984,0,0,1-.1973,1.3242,2.99,2.99,0,0,1-.5644,1.0156,2.4207,2.4207,0,0,1-.8946.6514A2.9963,2.9963,0,0,1,117.6133,32.84Zm.0224-.581a2.0971,2.0971,0,0,0,.9639-.2031,1.83,1.83,0,0,0,.65-.5518,2.29,2.29,0,0,0,.3721-.8252,4.3749,4.3749,0,0,0,.1162-1.0342,4.2092,4.2092,0,0,0-.1162-1.0049,2.2872,2.2872,0,0,0-.3721-.8183,1.83,1.83,0,0,0-.65-.5518,2.3642,2.3642,0,0,0-1.9219,0,1.7672,1.7672,0,0,0-.65.5518,2.35,2.35,0,0,0-.3662.8183,4.261,4.261,0,0,0-.1162,1.0166,4.3221,4.3221,0,0,0,.1162,1.0225,2.3519,2.3519,0,0,0,.3662.8252,1.7672,1.7672,0,0,0,.65.5518A2.1058,2.1058,0,0,0,117.6357,32.2588Z"/>
<path class="a" d="M122.1074,26.6709h.6738V30.47a2.3778,2.3778,0,0,0,.2969,1.3535,1.166,1.166,0,0,0,1.0157.4122,1.9887,1.9887,0,0,0,.7207-.14,2.3661,2.3661,0,0,0,.6855-.418,2.3978,2.3978,0,0,0,.5117-.6211,1.8578,1.8578,0,0,0,.1738-.8779V26.6709h.6739v5.9824h-.6739v-.9756a2.75,2.75,0,0,1-2.1718,1.1621,1.7632,1.7632,0,0,1-1.4649-.5576,2.58,2.58,0,0,1-.4414-1.6269Z"/>
<path class="a" d="M128.7178,26.6709h.6738v.9756a2.7445,2.7445,0,0,1,.8252-.79,1.89,1.89,0,0,1,.9873-.2783q.1275,0,.2373.0059a1.8658,1.8658,0,0,1,.2383.0293l-.08.6387a2.3381,2.3381,0,0,0-.3848-.0352,1.855,1.855,0,0,0-.6152.11,1.6507,1.6507,0,0,0-.5918.378,1.8948,1.8948,0,0,0-.4414.5635,1.6475,1.6475,0,0,0-.1748.7841v3.6006h-.6738Z"/>
<path class="a" d="M135.8271,24.3594H138.43a4.5911,4.5911,0,0,1,1.4687.1972,2.4641,2.4641,0,0,1,.9063.5108,1.6269,1.6269,0,0,1,.4531.7207,2.8352,2.8352,0,0,1,.1221.8252,2.4566,2.4566,0,0,1-.3545,1.3467,2.1874,2.1874,0,0,1-1.1563.8486l1.7891,3.8447h-.8242l-1.6611-3.6826c-.1319.0156-.2667.0293-.4073.041-.1386.0117-.2861.0176-.4414.0176h-1.8008v3.624h-.6963Zm2.6944,4.042a3.7571,3.7571,0,0,0,1.041-.1211,1.6086,1.6086,0,0,0,.6563-.3545,1.2656,1.2656,0,0,0,.3417-.5576,2.5392,2.5392,0,0,0,.1-.7442,2.2013,2.2013,0,0,0-.1055-.7138,1.1015,1.1015,0,0,0-.3652-.5166,1.7616,1.7616,0,0,0-.6973-.3145,4.8386,4.8386,0,0,0-1.0977-.1045h-1.8711v3.4268Z"/>
<path class="a" d="M148.1289,31.085a2.036,2.036,0,0,1-.7432,1.2666,2.6753,2.6753,0,0,1-1.72.4882,2.502,2.502,0,0,1-2.0039-.831,3.3841,3.3841,0,0,1-.7139-2.2822,4.3639,4.3639,0,0,1,.2032-1.3946,2.9154,2.9154,0,0,1,.5693-1.0166,2.3873,2.3873,0,0,1,.8594-.6211,2.7538,2.7538,0,0,1,1.0859-.2089,2.8,2.8,0,0,1,1.1856.2265,2.145,2.145,0,0,1,.7949.6152,2.4623,2.4623,0,0,1,.4473.9239,4.5057,4.5057,0,0,1,.1406,1.1494v.4307h-4.6016a3.4432,3.4432,0,0,0,.1289.958,2.2761,2.2761,0,0,0,.3828.7783,1.8216,1.8216,0,0,0,.6387.5224,1.95,1.95,0,0,0,.8828.1924,2.881,2.881,0,0,0,.7676-.0879,1.4859,1.4859,0,0,0,.5225-.249,1.2779,1.2779,0,0,0,.331-.3779,2.0137,2.0137,0,0,0,.1914-.4824Zm-.5918-1.835a3.5579,3.5579,0,0,0-.1055-.8945,1.9922,1.9922,0,0,0-.3242-.7032,1.47,1.47,0,0,0-.582-.4589,2.07,2.07,0,0,0-.8594-.1622,1.8394,1.8394,0,0,0-1.3935.5459,2.7271,2.7271,0,0,0-.628,1.6729Z"/>
<path class="a" d="M149.9062,24.3594h.6739v8.2939h-.6739Z"/>
<path class="a" d="M156.2832,31.8057a2.8664,2.8664,0,0,1-.3594.3662,2.5059,2.5059,0,0,1-.4765.3193,2.7189,2.7189,0,0,1-.5869.2207,2.87,2.87,0,0,1-.7022.0811,2.3574,2.3574,0,0,1-1.5107-.4532,1.6166,1.6166,0,0,1-.5694-1.3476,1.7519,1.7519,0,0,1,.2559-.9873,1.7938,1.7938,0,0,1,.68-.6045,3.19,3.19,0,0,1,.9638-.3076,9.5178,9.5178,0,0,1,1.1211-.11l1.1612-.0459V28.75a1.9842,1.9842,0,0,0-.3418-1.2891,1.5383,1.5383,0,0,0-1.2266-.4062,3.195,3.195,0,0,0-.7246.0693,1.4835,1.4835,0,0,0-.4941.2031,1.1046,1.1046,0,0,0-.3145.3135,1.3992,1.3992,0,0,0-.1738.4014l-.6153-.0928q.3252-1.4648,2.3457-1.4638a3.22,3.22,0,0,1,1.0577.15,1.6869,1.6869,0,0,1,.6914.4356,1.71,1.71,0,0,1,.3779.6973,3.5573,3.5573,0,0,1,.1152.9472v3.9375h-.6738Zm-.0117-2.335-1.1035.0459a6.5079,6.5079,0,0,0-1.127.1221,2.2481,2.2481,0,0,0-.7314.2793,1.0564,1.0564,0,0,0-.4.4414,1.461,1.461,0,0,0-.1221.6211,1.2361,1.2361,0,0,0,.3076.8769,1.4275,1.4275,0,0,0,1.0752.3311,3.3341,3.3341,0,0,0,.76-.0869,1.51,1.51,0,0,0,.6221-.2842,2.49,2.49,0,0,0,.3427-.291,1.3343,1.3343,0,0,0,.2207-.3076,1.2655,1.2655,0,0,0,.1221-.377,3.1041,3.1041,0,0,0,.0342-.4883Z"/>
<path class="a" d="M159.1416,27.2285h-.9287v-.5576h.9287V25.0215h.6738v1.6494h1.6963v.5576h-1.6963v3.9151a1.414,1.414,0,0,0,.1866.749.6953.6953,0,0,0,.65.3076,2.3863,2.3863,0,0,0,.5108-.0459,3.3778,3.3778,0,0,0,.3721-.1045l.1386.5459a2.6845,2.6845,0,0,1-1.08.1855,1.5544,1.5544,0,0,1-.8008-.1738,1.1251,1.1251,0,0,1-.4366-.459,1.7861,1.7861,0,0,1-.18-.6562q-.0352-.3722-.0352-.7783Z"/>
<path class="a" d="M162.8594,24.3594h.7656V25.37h-.7656Zm.0459,2.3115h.6738v5.9824h-.6738Z"/>
<path class="a" d="M168.0742,32.84a2.9878,2.9878,0,0,1-1.1787-.2207,2.349,2.349,0,0,1-.8721-.6337,2.8722,2.8722,0,0,1-.5449-.9932,4.1294,4.1294,0,0,1-.1914-1.3008,4.0275,4.0275,0,0,1,.2031-1.3242,2.962,2.962,0,0,1,.5684-1.0108,2.4631,2.4631,0,0,1,.8887-.6445,2.9222,2.9222,0,0,1,1.1738-.2265,2.99,2.99,0,0,1,1.1738.2207,2.3907,2.3907,0,0,1,.8828.6328,2.8493,2.8493,0,0,1,.5508.9931,4.0712,4.0712,0,0,1,.1914,1.29,4.1728,4.1728,0,0,1-.1972,1.3242,2.9547,2.9547,0,0,1-.5625,1.0156,2.4363,2.4363,0,0,1-.8946.6514A3.0132,3.0132,0,0,1,168.0742,32.84Zm.0235-.581a2.1039,2.1039,0,0,0,.9648-.2031,1.8475,1.8475,0,0,0,.65-.5518,2.3054,2.3054,0,0,0,.3711-.8252,4.3234,4.3234,0,0,0,.1162-1.0342,4.1588,4.1588,0,0,0-.1162-1.0049,2.3031,2.3031,0,0,0-.3711-.8183,1.8475,1.8475,0,0,0-.65-.5518,2.3687,2.3687,0,0,0-1.9238,0,1.7817,1.7817,0,0,0-.65.5518,2.365,2.365,0,0,0-.3653.8183,4.21,4.21,0,0,0-.1162,1.0166,4.2707,4.2707,0,0,0,.1162,1.0225,2.3671,2.3671,0,0,0,.3653.8252,1.7817,1.7817,0,0,0,.65.5518A2.1125,2.1125,0,0,0,168.0977,32.2588Z"/>
<path class="a" d="M172.5938,26.6709h.6738v.9756a3.1279,3.1279,0,0,1,1.039-.8887,2.6326,2.6326,0,0,1,1.18-.2724,1.88,1.88,0,0,1,1.51.5693,2.4062,2.4062,0,0,1,.4883,1.6142v3.9844h-.6739V28.8545a2.15,2.15,0,0,0-.3369-1.3525,1.3016,1.3016,0,0,0-1.0693-.4131,2.2733,2.2733,0,0,0-.7373.1338,1.9664,1.9664,0,0,0-.7022.4238,2.3076,2.3076,0,0,0-.5234.6221,1.8425,1.8425,0,0,0-.1738.8769v3.5078h-.6738Z"/>
<path class="a" d="M179.668,30.9922a1.3877,1.3877,0,0,0,.5918.9873,2.5036,2.5036,0,0,0,1.3242.291,1.8351,1.8351,0,0,0,1.2324-.3252,1.05,1.05,0,0,0,.3594-.8135,1.5892,1.5892,0,0,0-.0459-.39.8029.8029,0,0,0-.1807-.3311,1.0324,1.0324,0,0,0-.3828-.2549,3.0829,3.0829,0,0,0-.6445-.1748l-.7324-.1162a6.8087,6.8087,0,0,1-.8536-.1972,2.1143,2.1143,0,0,1-.6386-.3076,1.2335,1.2335,0,0,1-.3955-.4766,1.65,1.65,0,0,1-.1338-.7031,1.4667,1.4667,0,0,1,.1748-.7139,1.5768,1.5768,0,0,1,.4756-.5342,2.2751,2.2751,0,0,1,.7148-.331,3.24,3.24,0,0,1,.8887-.1162,3.6575,3.6575,0,0,1,1.0283.122,1.9569,1.9569,0,0,1,.6738.3311,1.506,1.506,0,0,1,.4063.4873,2.794,2.794,0,0,1,.2265.5928l-.6162.1279a2.4467,2.4467,0,0,0-.2148-.4707,1.1025,1.1025,0,0,0-.3067-.3369,1.3557,1.3557,0,0,0-.4648-.2032,3.4914,3.4914,0,0,0-1.4756.0176,1.405,1.405,0,0,0-.5049.2383.86.86,0,0,0-.2734.3477,1.0525,1.0525,0,0,0-.082.4072,1.399,1.399,0,0,0,.0468.3769.633.633,0,0,0,.1856.2969,1.201,1.201,0,0,0,.39.2207,3.7757,3.7757,0,0,0,.6563.1621l.9179.1514a2.8856,2.8856,0,0,1,1.4053.5635,1.5283,1.5283,0,0,1,.4649,1.2256,1.5729,1.5729,0,0,1-.1446.6621,1.4868,1.4868,0,0,1-.4306.54,2.1586,2.1586,0,0,1-.7139.36,3.3445,3.3445,0,0,1-.9883.1337,4.5358,4.5358,0,0,1-1.0039-.1044,2.4306,2.4306,0,0,1-.7969-.3262,1.733,1.733,0,0,1-.5449-.5684,1.9905,1.9905,0,0,1-.2558-.8486Z"/>
<path class="a" d="M188.4727,24.3594h2.6259a5.1507,5.1507,0,0,1,1.4229.1621,2.326,2.326,0,0,1,.8769.4473,1.4852,1.4852,0,0,1,.4473.6562,2.5018,2.5018,0,0,1,.1221.79,1.843,1.843,0,0,1-1.2666,1.8477,2.8022,2.8022,0,0,1,.7383.3652,1.9734,1.9734,0,0,1,.4765.4825,1.7938,1.7938,0,0,1,.2549.5751,2.6243,2.6243,0,0,1,.0752.6211,2.75,2.75,0,0,1-.15.918,1.83,1.83,0,0,1-.5.749,2.4081,2.4081,0,0,1-.9062.5,4.4974,4.4974,0,0,1-1.37.18h-2.8466Zm2.73,3.6357a2.5537,2.5537,0,0,0,1.5742-.3887,1.3868,1.3868,0,0,0,.4942-1.1562,1.2888,1.2888,0,0,0-.4942-1.1211,3.0349,3.0349,0,0,0-1.7021-.3545H189.17v3.0205Zm.0928,4.0313a4.2339,4.2339,0,0,0,1.0869-.1162,1.7154,1.7154,0,0,0,.6729-.3311,1.1383,1.1383,0,0,0,.3486-.5225,2.239,2.239,0,0,0,.0986-.6914,1.6156,1.6156,0,0,0-.5107-1.29,2.5287,2.5287,0,0,0-1.6621-.4414h-2.16v3.3926Z"/>
<path class="a" d="M198.418,32.84a2.9893,2.9893,0,0,1-1.18-.2207,2.3446,2.3446,0,0,1-.8711-.6337,2.9072,2.9072,0,0,1-.5469-.9932,4.1583,4.1583,0,0,1-.1914-1.3008,4.0808,4.0808,0,0,1,.2031-1.3242,2.9821,2.9821,0,0,1,.57-1.0108,2.4394,2.4394,0,0,1,.8887-.6445,2.9079,2.9079,0,0,1,1.1729-.2265,2.9776,2.9776,0,0,1,1.1728.2207,2.3825,2.3825,0,0,1,.8828.6328,2.8691,2.8691,0,0,1,.5528.9931,4.1288,4.1288,0,0,1,.1914,1.29,4.1984,4.1984,0,0,1-.1973,1.3242,2.99,2.99,0,0,1-.5644,1.0156,2.4207,2.4207,0,0,1-.8946.6514A2.9963,2.9963,0,0,1,198.418,32.84Zm.0224-.581a2.0971,2.0971,0,0,0,.9639-.2031,1.83,1.83,0,0,0,.65-.5518,2.29,2.29,0,0,0,.3721-.8252,4.3749,4.3749,0,0,0,.1162-1.0342,4.2092,4.2092,0,0,0-.1162-1.0049,2.2872,2.2872,0,0,0-.3721-.8183,1.83,1.83,0,0,0-.65-.5518,2.3642,2.3642,0,0,0-1.9219,0,1.7656,1.7656,0,0,0-.65.5518,2.3479,2.3479,0,0,0-.3662.8183,4.261,4.261,0,0,0-.1162,1.0166,4.3221,4.3221,0,0,0,.1162,1.0225,2.35,2.35,0,0,0,.3662.8252,1.7656,1.7656,0,0,0,.65.5518A2.1058,2.1058,0,0,0,198.44,32.2588Z"/>
<path class="a" d="M206.7461,31.8057a2.8774,2.8774,0,0,1-.36.3662,2.4978,2.4978,0,0,1-.4755.3193,2.7477,2.7477,0,0,1-.5879.2207,2.87,2.87,0,0,1-.7022.0811,2.3576,2.3576,0,0,1-1.5107-.4532,1.6189,1.6189,0,0,1-.5684-1.3476,1.744,1.744,0,0,1,.2559-.9873,1.7938,1.7938,0,0,1,.68-.6045,3.1838,3.1838,0,0,1,.9629-.3076,9.5564,9.5564,0,0,1,1.121-.11l1.1622-.0459V28.75a1.9839,1.9839,0,0,0-.3428-1.2891,1.5371,1.5371,0,0,0-1.2256-.4062,3.1989,3.1989,0,0,0-.7256.0693,1.4925,1.4925,0,0,0-.4941.2031,1.088,1.088,0,0,0-.3135.3135,1.3486,1.3486,0,0,0-.1738.4014l-.6162-.0928q.3252-1.4648,2.3466-1.4638a3.2174,3.2174,0,0,1,1.0567.15,1.6737,1.6737,0,0,1,.6914.4356,1.6986,1.6986,0,0,1,.3779.6973,3.5147,3.5147,0,0,1,.1162.9472v3.9375h-.6738Zm-.0117-2.335-1.1035.0459a6.5056,6.5056,0,0,0-1.127.1221,2.2455,2.2455,0,0,0-.7324.2793,1.0631,1.0631,0,0,0-.4.4414,1.4612,1.4612,0,0,0-.1211.6211,1.236,1.236,0,0,0,.3066.8769,1.4291,1.4291,0,0,0,1.0752.3311,3.3492,3.3492,0,0,0,.7608-.0869,1.5,1.5,0,0,0,.6211-.2842,2.4455,2.4455,0,0,0,.3437-.291,1.3648,1.3648,0,0,0,.2207-.3076,1.2938,1.2938,0,0,0,.1211-.377,2.9792,2.9792,0,0,0,.0352-.4883Z"/>
<path class="a" d="M209.2666,26.6709h.6738v.9756a2.7468,2.7468,0,0,1,.8252-.79,1.89,1.89,0,0,1,.9873-.2783q.1275,0,.2373.0059a1.8615,1.8615,0,0,1,.2383.0293l-.08.6387a2.337,2.337,0,0,0-.3847-.0352,1.8551,1.8551,0,0,0-.6153.11,1.6515,1.6515,0,0,0-.5918.378,1.8964,1.8964,0,0,0-.4414.5635,1.6475,1.6475,0,0,0-.1748.7841v3.6006h-.6738Z"/>
<path class="a" d="M217.8633,31.7588a3.0782,3.0782,0,0,1-.877.79,2.34,2.34,0,0,1-1.2031.291,2.42,2.42,0,0,1-1.1445-.2558,2.3044,2.3044,0,0,1-.7949-.6856,2.9655,2.9655,0,0,1-.4649-.9931,4.54,4.54,0,0,1-.15-1.1787,3.6135,3.6135,0,0,1,.7139-2.3877,2.4274,2.4274,0,0,1,1.9687-.8535,2.625,2.625,0,0,1,.9991.2089,2.3488,2.3488,0,0,1,.9531.79v-3.125h.6738v8.2939h-.6738Zm.0351-2.335a4.5643,4.5643,0,0,0-.0468-.7021,2.3724,2.3724,0,0,0-.14-.5235,1.39,1.39,0,0,0-.249-.4,2.8046,2.8046,0,0,0-.3672-.337,1.98,1.98,0,0,0-.5508-.3017,1.914,1.914,0,0,0-.622-.0938,2.1,2.1,0,0,0-.79.1455,1.5561,1.5561,0,0,0-.6211.459,2.2819,2.2819,0,0,0-.4121.8135,4.2263,4.2263,0,0,0-.1514,1.22,3.8094,3.8094,0,0,0,.169,1.2256,2.2336,2.2336,0,0,0,.4355.79,1.5007,1.5007,0,0,0,.5977.4179,1.9248,1.9248,0,0,0,.668.1221,2.3648,2.3648,0,0,0,.6445-.0811,1.9037,1.9037,0,0,0,.5869-.3027,2.0368,2.0368,0,0,0,.6279-.7666,2.7119,2.7119,0,0,0,.2207-1.1611Z"/>
<!-- LRB -->
<path class="a lrb" d="M10.1743,7.4077h7.6919v20.353H29.7354v6.1465H10.1743Z"/>
<path class="a lrb" d="M33.5532,7.4077H45.9561c6.9375,0,10.7285,2.0977,10.7285,8.336a7.74,7.74,0,0,1-5.5576,7.5634V23.51c2.6865,1.3984,3.6069,3.3857,6.9926,10.3974H49.82c-2.208-4.95-3.2754-7.2138-5.1709-8.999H41.19v8.999H33.5532ZM41.19,12.3765v7.5263h2.1163c4.3613,0,5.7045-1.27,5.7045-3.92,0-3.2754-2.0244-3.6064-4.9687-3.6064Z"/>
<path class="a lrb" d="M61.771,7.4077H75.2778c4.3062,0,8.4468,1.73,8.4468,6.6431,0,3.2939-2.3,5.0239-4.6929,5.8706v.2207c3.6807.4966,6.0362,2.9809,6.0362,6.4224,0,4.7109-3.5884,7.3427-9.9741,7.3427H61.771ZM72.5361,18.32c1.9507,0,3.5884-.7544,3.5884-3.1836,0-2.0058-1.73-2.65-3.6987-2.65H69.334V18.32Zm.8462,10.5078c1.9693,0,3.8648-.46,3.8648-2.9814,0-2.5029-1.4908-3.0918-4.4536-3.0918H69.334v6.0732Z"/></svg>